<svg width="40" height="41" viewBox="0 0 40 41" fill="none" xmlns="http://www.w3.org/2000/svg">
<path d="M13.6666 8.68485V12.5272C13.6666 13.2346 13.0995 13.808 12.3999 13.808H8.59992C7.90036 13.808 7.33325 13.2346 7.33325 12.5272V8.68485C7.33325 7.97749 7.90036 7.40405 8.59992 7.40405H12.3999C13.0995 7.40405 13.6666 7.97749 13.6666 8.68485Z" stroke="white" stroke-width="2" stroke-linecap="round" stroke-linejoin="round"/>
<path d="M7.33325 20.2119H13.6666" stroke="white" stroke-width="2" stroke-linecap="round" stroke-linejoin="round"/>
<path d="M26.3333 20.2119V26.6159" stroke="white" stroke-width="2" stroke-linecap="round" stroke-linejoin="round"/>
<path d="M20 33.0198H26.3333" stroke="white" stroke-width="2" stroke-linecap="round" stroke-linejoin="round"/>
<path d="M20 20.2356L20.0206 20.2119" stroke="white" stroke-width="2" stroke-linecap="round" stroke-linejoin="round"/>
<path d="M32.6667 20.2356L32.6873 20.2119" stroke="white" stroke-width="2" stroke-linecap="round" stroke-linejoin="round"/>
<path d="M20 26.6397L20.0206 26.616" stroke="white" stroke-width="2" stroke-linecap="round" stroke-linejoin="round"/>
<path d="M32.6667 26.6397L32.6873 26.616" stroke="white" stroke-width="2" stroke-linecap="round" stroke-linejoin="round"/>
<path d="M32.6667 33.0435L32.6873 33.0198" stroke="white" stroke-width="2" stroke-linecap="round" stroke-linejoin="round"/>
<path d="M20 13.8316L20.0206 13.8079" stroke="white" stroke-width="2" stroke-linecap="round" stroke-linejoin="round"/>
<path d="M20 7.42777L20.0206 7.40405" stroke="white" stroke-width="2" stroke-linecap="round" stroke-linejoin="round"/>
<path d="M13.6666 27.8968V31.7391C13.6666 32.4466 13.0995 33.0199 12.3999 33.0199H8.59992C7.90036 33.0199 7.33325 32.4466 7.33325 31.7391V27.8968C7.33325 27.1893 7.90036 26.616 8.59992 26.616H12.3999C13.0995 26.616 13.6666 27.1893 13.6666 27.8968Z" stroke="white" stroke-width="2" stroke-linecap="round" stroke-linejoin="round"/>
<path d="M32.6666 8.68485V12.5272C32.6666 13.2346 32.0995 13.808 31.3999 13.808H27.5999C26.9003 13.808 26.3333 13.2346 26.3333 12.5272V8.68485C26.3333 7.97749 26.9003 7.40405 27.5999 7.40405H31.3999C32.0995 7.40405 32.6666 7.97749 32.6666 8.68485Z" stroke="white" stroke-width="2" stroke-linecap="round" stroke-linejoin="round"/>
<path d="M32.6667 1H39.0001V7.40398" stroke="#B5B600" stroke-width="2" stroke-linecap="round" stroke-linejoin="round"/>
<path d="M32.6667 39.4238H39.0001V33.0198" stroke="#B5B600" stroke-width="2" stroke-linecap="round" stroke-linejoin="round"/>
<path d="M7.33334 1H1V7.40398" stroke="#B5B600" stroke-width="2" stroke-linecap="round" stroke-linejoin="round"/>
<path d="M7.33334 39.4238H1V33.0198" stroke="#B5B600" stroke-width="2" stroke-linecap="round" stroke-linejoin="round"/>
</svg>

