<svg width="25" height="25" viewBox="0 0 25 25" fill="none" xmlns="http://www.w3.org/2000/svg"><path d="M9.177 2.083L5.406 5.865M15.823 2.083L19.594 5.865" stroke="#B5B600" stroke-width="1.5625" stroke-miterlimit="10" stroke-linecap="round" stroke-linejoin="round"/><path d="M2.083 8.177C2.083 6.25 3.115 6.094 4.396 6.094H20.604C21.885 6.094 22.917 6.25 22.917 8.177C22.917 10.417 21.885 10.26 20.604 10.26H4.396C3.115 10.26 2.083 10.417 2.083 8.177Z" stroke="#B5B600" stroke-width="1.5625"/><path d="M10.167 14.583V18.281M14.958 14.583V18.281M3.646 10.417L5.115 19.417C5.448 21.438 6.25 22.917 9.229 22.917H15.51C18.75 22.917 19.229 21.5 19.604 19.542L21.354 10.417" stroke="#B5B600" stroke-width="1.5625" stroke-linecap="round"/></svg>