<svg width="40" height="40" viewBox="0 0 40 40" fill="none" xmlns="http://www.w3.org/2000/svg"><path d="M28.283 24.067C30.567 24.45 33.083 24.05 34.85 22.867C37.2 21.3 37.2 18.733 34.85 17.167C33.067 15.983 30.517 15.583 28.233 15.983M11.667 24.067C9.383 24.45 6.867 24.05 5.1 22.867C2.75 21.3 2.75 18.733 5.1 17.167C6.883 15.983 9.433 15.583 11.717 15.983M30 11.933C29.895 11.917 29.788 11.917 29.683 11.933C28.571 11.893 27.518 11.422 26.746 10.62C25.975 9.817 25.546 8.746 25.55 7.633C25.55 5.25 27.467 3.333 29.85 3.333C30.99 3.333 32.084 3.786 32.891 4.593C33.697 5.399 34.15 6.493 34.15 7.633C34.147 8.747 33.713 9.817 32.94 10.618C32.166 11.419 31.113 11.891 30 11.933V11.933ZM9.95 11.933C10.05 11.917 10.167 11.917 10.267 11.933C11.379 11.893 12.432 11.422 13.203 10.62C13.975 9.817 14.404 8.746 14.4 7.633C14.4 5.25 12.483 3.333 10.1 3.333C8.959 3.333 7.866 3.786 7.059 4.593C6.253 5.399 5.8 6.493 5.8 7.633C5.817 9.967 7.65 11.85 9.95 11.933ZM20 24.383C19.895 24.367 19.788 24.367 19.683 24.383C18.571 24.343 17.518 23.872 16.747 23.07C15.975 22.267 15.546 21.196 15.55 20.083C15.55 17.7 17.467 15.783 19.85 15.783C20.99 15.783 22.084 16.236 22.89 17.043C23.697 17.849 24.15 18.943 24.15 20.083C24.133 22.417 22.3 24.317 20 24.383ZM15.15 29.633C12.8 31.2 12.8 33.767 15.15 35.333C17.817 37.117 22.183 37.117 24.85 35.333C27.2 33.767 27.2 31.2 24.85 29.633C22.2 27.867 17.817 27.867 15.15 29.633Z" stroke="white" stroke-width="2.5" stroke-linecap="round" stroke-linejoin="round"/></svg>