<svg width="21.591" height="25" viewBox="0 0 21.591 25" fill="none" xmlns="http://www.w3.org/2000/svg"><path d="M6.818 10.511H15.909M6.818 14.489H13.636M20.455 6.864V18.136C20.455 19.864 20.296 21.091 19.886 21.966C19.886 21.977 19.875 22 19.864 22.011C19.614 22.33 19.284 22.489 18.898 22.489C18.296 22.489 17.568 22.091 16.784 21.25C15.852 20.25 14.421 20.33 13.602 21.421L12.455 22.943C12 23.557 11.398 23.864 10.796 23.864C10.193 23.864 9.591 23.557 9.136 22.943L7.977 21.409C7.17 20.33 5.75 20.25 4.818 21.239L4.807 21.25C3.523 22.625 2.386 22.83 1.727 22.011C1.715 21.999 1.707 21.983 1.705 21.966C1.295 21.091 1.136 19.864 1.136 18.136V6.864C1.136 5.136 1.295 3.909 1.705 3.034C1.705 3.023 1.705 3.011 1.727 3C2.375 2.17 3.523 2.375 4.807 3.75L4.818 3.761C5.75 4.75 7.17 4.67 7.977 3.591L9.136 2.057C9.591 1.443 10.193 1.136 10.796 1.136C11.398 1.136 12 1.443 12.455 2.057L13.602 3.58C14.421 4.67 15.852 4.75 16.784 3.75C17.568 2.909 18.296 2.511 18.898 2.511C19.284 2.511 19.614 2.682 19.864 3C19.886 3.011 19.886 3.023 19.886 3.034C20.296 3.909 20.455 5.136 20.455 6.864Z" stroke="#ADADAF" stroke-width="2.2727368421052634" stroke-linecap="round" stroke-linejoin="round"/></svg>