<svg width="25" height="25" viewBox="0 0 25 25" fill="none" xmlns="http://www.w3.org/2000/svg"><path d="M13.605 0.458C13.312 0.165 12.914 0 12.5 0C12.086 0 11.688 0.165 11.395 0.458L0.458 11.395C0.173 11.69 0.016 12.085 0.019 12.494C0.023 12.904 0.187 13.296 0.477 13.586C0.767 13.875 1.158 14.04 1.568 14.043C1.978 14.047 2.373 13.889 2.667 13.605L3.125 13.147V23.438C3.125 23.852 3.29 24.249 3.583 24.542C3.876 24.835 4.273 25 4.688 25H7.813C8.227 25 8.624 24.835 8.917 24.542C9.21 24.249 9.375 23.852 9.375 23.438V20.313C9.375 19.898 9.54 19.501 9.833 19.208C10.126 18.915 10.523 18.75 10.938 18.75H14.063C14.477 18.75 14.874 18.915 15.167 19.208C15.46 19.501 15.625 19.898 15.625 20.313V23.438C15.625 23.852 15.79 24.249 16.083 24.542C16.376 24.835 16.773 25 17.188 25H20.313C20.727 25 21.124 24.835 21.417 24.542C21.71 24.249 21.875 23.852 21.875 23.438V13.147L22.333 13.605C22.628 13.889 23.022 14.047 23.432 14.043C23.842 14.04 24.233 13.875 24.523 13.586C24.813 13.296 24.977 12.904 24.981 12.494C24.984 12.085 24.827 11.69 24.542 11.395L13.605 0.458V0.458Z" fill="#00BC00"/></svg>