<svg width="25" height="25" viewBox="0 0 25 25" fill="none" xmlns="http://www.w3.org/2000/svg"><path d="M10.87 2.174H8.696C3.261 2.174 1.087 4.348 1.087 9.783V16.304C1.087 21.739 3.261 23.913 8.696 23.913H15.217C20.652 23.913 22.826 21.739 22.826 16.304V14.13" stroke="#ADADAF" stroke-width="2.1739130434782608" stroke-linecap="round" stroke-linejoin="round"/><path d="M16.348 3.283L7.783 11.848C7.457 12.174 7.13 12.815 7.065 13.283L6.598 16.554C6.424 17.739 7.261 18.565 8.446 18.402L11.717 17.935C12.174 17.87 12.815 17.543 13.152 17.217L21.717 8.652C23.196 7.174 23.891 5.457 21.717 3.283C19.543 1.109 17.826 1.804 16.348 3.283V3.283Z" stroke="#ADADAF" stroke-width="2.1739130434782608" stroke-miterlimit="10" stroke-linecap="round" stroke-linejoin="round"/><path d="M15.12 4.511C15.48 5.791 16.163 6.957 17.103 7.897C18.043 8.837 19.209 9.52 20.489 9.88" stroke="#ADADAF" stroke-width="2.1739130434782608" stroke-miterlimit="10" stroke-linecap="round" stroke-linejoin="round"/></svg>