<svg width="106" height="118" viewBox="0 0 106 118" fill="none" xmlns="http://www.w3.org/2000/svg">
<path d="M35.3333 50.3958H70.6667M35.3333 67.6042H61.8333M88.3333 34.6133V83.3866C88.3333 90.86 87.715 96.17 86.125 99.9558C86.125 100.005 86.0808 100.103 86.0367 100.152C85.065 101.529 83.7842 102.217 82.2825 102.217C79.9417 102.217 77.115 100.497 74.0675 96.8583C70.4458 92.5317 64.8808 92.8758 61.7008 97.5958L57.24 104.184C55.4733 106.839 53.1325 108.167 50.7917 108.167C48.4508 108.167 46.11 106.839 44.3433 104.184L39.8383 97.5467C36.7025 92.8758 31.1817 92.5317 27.56 96.8092L27.5158 96.8583C22.525 102.807 18.1083 103.692 15.5467 100.152C15.5002 100.098 15.4694 100.03 15.4583 99.9558C13.8683 96.17 13.25 90.86 13.25 83.3866V34.6133C13.25 27.14 13.8683 21.83 15.4583 18.0441C15.4583 17.995 15.4583 17.9458 15.5467 17.8966C18.0642 14.3075 22.525 15.1925 27.5158 21.1416L27.56 21.1908C31.1817 25.4683 36.7025 25.1241 39.8383 20.4533L44.3433 13.8158C46.11 11.1608 48.4508 9.83331 50.7917 9.83331C53.1325 9.83331 55.4733 11.1608 57.24 13.8158L61.7008 20.4041C64.8808 25.1241 70.4458 25.4683 74.0675 21.1416C77.115 17.5033 79.9417 15.7825 82.2825 15.7825C83.7842 15.7825 85.065 16.52 86.0367 17.8966C86.125 17.9458 86.125 17.995 86.125 18.0441C87.715 21.83 88.3333 27.14 88.3333 34.6133Z" stroke="#C7C7C7" stroke-width="10" stroke-linecap="round" stroke-linejoin="round"/>
</svg>
