<svg width="25" height="22.115" viewBox="0 0 25 22.115" fill="none" xmlns="http://www.w3.org/2000/svg"><path d="M14.143 0.601C11.369 0.601 8.71 1.703 6.749 3.664C4.788 5.625 3.686 8.284 3.686 11.058H0.2L4.72 15.577L4.801 15.74L9.495 11.058H6.01C6.01 6.561 9.646 2.925 14.143 2.925C18.639 2.925 22.276 6.561 22.276 11.058C22.276 15.554 18.639 19.191 14.143 19.191C11.9 19.191 9.867 18.273 8.403 16.797L6.753 18.447C7.722 19.421 8.873 20.193 10.141 20.72C11.41 21.246 12.77 21.516 14.143 21.514C16.916 21.514 19.576 20.413 21.537 18.452C23.498 16.491 24.599 13.831 24.599 11.058C24.599 8.284 23.498 5.625 21.537 3.664C19.576 1.703 16.916 0.601 14.143 0.601ZM12.981 6.41V12.22L17.919 15.147L18.813 13.649L14.724 11.22V6.41H12.981Z" fill="#ADADAF"/></svg>