<svg width="156" height="156" viewBox="0 0 156 156" fill="none" xmlns="http://www.w3.org/2000/svg">
<path d="M78 13V52L91 39M78 52L65 39" stroke="#C7C7C7" stroke-width="10" stroke-linecap="round" stroke-linejoin="round"/>
<path d="M32.5 78V52C32.5 38.935 32.5 28.145 52 26.26M123.5 78V52C123.5 38.935 123.5 28.145 104 26.26M45.5 78C19.5 78 19.5 89.635 19.5 104V110.5C19.5 128.44 19.5 143 52 143H104C130 143 136.5 128.44 136.5 110.5V104C136.5 89.635 136.5 78 110.5 78C104 78 102.18 79.365 98.8 81.9L92.17 88.92C90.3472 90.8589 88.1468 92.404 85.7042 93.4601C83.2616 94.5163 80.6286 95.0611 77.9675 95.0611C75.3064 95.0611 72.6734 94.5163 70.2308 93.4601C67.7882 92.404 65.5878 90.8589 63.765 88.92L57.2 81.9C53.82 79.365 52 78 45.5 78Z" stroke="#C7C7C7" stroke-width="10" stroke-miterlimit="10" stroke-linecap="round" stroke-linejoin="round"/>
</svg>

