<svg width="20" height="20" viewBox="0 0 20 20" fill="none" xmlns="http://www.w3.org/2000/svg">
<path d="M10.7375 2.665C10.7165 2.6545 8.63603 1.6665 6.98053 1.5405C5.24053 1.405 3.49703 2.3285 3.47903 2.3385L3.24353 1.897C3.31953 1.8565 5.13353 0.900996 7.01853 1.0415C8.76803 1.1755 10.8645 2.172 10.953 2.214L10.7375 2.665Z" fill="black"/>
<path d="M8.97852 3.64851L8.75952 3.19901L10.4745 2.36301L9.36652 0.840509L9.77102 0.546509L11.2295 2.55051L8.97852 3.64851Z" fill="black"/>
<path d="M1.51152 4.95701L1.29602 4.50601C1.38452 4.46401 3.48102 3.46751 5.23102 3.33351C7.11002 3.19651 8.92952 4.14851 9.00552 4.18901L8.77002 4.63051C8.75252 4.62101 7.00352 3.69701 5.26902 3.83251C3.61352 3.95851 1.53252 4.94701 1.51152 4.95701Z" fill="black"/>
<path d="M3.27103 5.9405L1.01953 4.8425L2.47803 2.8385L2.88253 3.1325L1.77453 4.655L3.48953 5.491L3.27103 5.9405Z" fill="black"/>
<path d="M12.669 19.719C12.0325 19.719 11.387 19.65 10.803 19.52C9.80651 19.298 7.71001 17.6985 7.26651 17.239C6.86551 16.8235 5.79151 15.2285 5.63401 13.931C5.56501 13.366 5.99851 11.6825 6.52901 11.0835C6.63351 10.966 6.74301 10.887 6.85501 10.848C6.83248 10.7965 6.80964 10.7452 6.78651 10.694C6.44151 9.94301 5.93051 9.07551 5.47951 8.30951C4.71601 7.01251 4.43151 6.49451 4.47951 6.19951C4.56001 5.69951 4.97001 5.12251 5.51601 5.02151L5.61251 5.00201C5.75327 4.96808 5.89725 4.94931 6.04201 4.94601C6.51851 4.94601 6.95501 5.21801 7.41651 5.80151C7.81601 6.30701 8.46301 7.70251 9.00751 8.96501C8.98251 8.64701 8.99201 8.38151 9.05901 8.22651C9.32901 7.60001 10.082 7.35351 10.3115 7.33901L10.368 7.33751C10.5135 7.33751 11.258 7.37401 11.603 8.09801C11.658 8.21401 11.7105 8.33901 11.759 8.46551C11.821 8.25051 11.909 8.06301 12.0345 7.95601C12.4205 7.62801 12.949 7.45801 13.3085 7.55901C13.695 7.66751 14.0205 8.07651 14.138 8.60301C14.1885 8.48901 14.2495 8.39651 14.3215 8.34251C14.671 8.08051 15.279 8.05251 15.664 8.31951C16.134 8.64551 17.215 10.5985 17.405 12.3065C17.5605 13.7105 17.736 16.2195 17.1565 17.2535C16.5545 18.326 15.323 19.159 14.4335 19.4785C14.0005 19.633 13.374 19.719 12.669 19.719ZM7.03401 11.329C6.70201 11.362 6.05151 13.222 6.13001 13.8695C6.27101 15.0335 7.27051 16.5225 7.62651 16.8915C8.05001 17.3305 10.055 18.8405 10.911 19.031C11.4605 19.1535 12.0675 19.2185 12.6685 19.2185C13.308 19.2185 13.889 19.141 14.263 19.006C14.9355 18.7645 16.1435 18.033 16.719 17.0065C17.093 16.341 17.1615 14.647 16.907 12.3605C16.7265 10.7315 15.673 8.93351 15.3785 8.72851C15.142 8.56501 14.748 8.64501 14.6205 8.74101C14.55 8.82151 14.4455 9.29251 14.405 9.74101L14.2795 11.1245L13.915 9.78401C13.915 9.78401 13.753 9.18901 13.651 8.71751C13.564 8.31901 13.342 8.08601 13.1725 8.03901C12.986 7.98601 12.6115 8.11951 12.358 8.33551C12.22 8.45301 12.1175 9.13201 12.113 9.66701L12.094 11.7455L11.6195 9.72151C11.6175 9.71251 11.419 8.87001 11.1515 8.31151C10.9355 7.85851 10.4605 7.83551 10.368 7.83551C10.2225 7.84551 9.69001 8.02451 9.51801 8.42301C9.39801 8.70251 9.67001 10.161 9.99051 11.3515L9.51651 11.5075C9.50001 11.464 7.75751 7.03651 7.02501 6.11001C6.55401 5.51401 6.23901 5.44501 6.04301 5.44501C5.93301 5.44501 5.82701 5.46701 5.71551 5.49051L5.60801 5.51201C5.32701 5.56401 5.03151 5.92251 4.97301 6.27901C4.97751 6.47001 5.49501 7.34901 5.91101 8.05551C6.36751 8.83151 6.88551 9.71101 7.24101 10.4845C7.33151 10.681 7.41551 10.8855 7.49301 11.0945L7.49401 11.098C8.03651 11.8455 8.30651 14.304 8.33601 14.5865L7.83951 14.644C7.83751 14.6265 7.60851 12.8755 7.05351 11.3475C7.04744 11.3409 7.04092 11.3347 7.03401 11.329Z" fill="black"/>
</svg>
